<?xml version="1.0" encoding="UTF-8"?>
<svg xmlns="http://www.w3.org/2000/svg" viewBox="0 0 1920 1080">
  <defs>
    <style>
      .cls-1 {
        fill: #499c43;
      }

      .cls-1, .cls-2, .cls-3, .cls-4, .cls-5, .cls-6, .cls-7, .cls-8, .cls-9, .cls-10, .cls-11, .cls-12, .cls-13, .cls-14, .cls-15, .cls-16, .cls-17, .cls-18, .cls-19, .cls-20, .cls-21, .cls-22 {
        stroke-width: 0px;
      }

      .cls-2 {
        fill: #c7945a;
      }

      .cls-3 {
        fill: #f0f0c2;
      }

      .cls-4 {
        fill: #cfcf65;
      }

      .cls-5 {
        fill: #5bad55;
      }

      .cls-6 {
        fill: #c482b5;
      }

      .cls-7 {
        fill: #a766aa;
      }

      .cls-8 {
        fill: #9853a0;
      }

      .cls-9 {
        fill: #408c3b;
      }

      .cls-10 {
        fill: #d1af5e;
      }

      .cls-11 {
        fill: #eb91d1;
      }

      .cls-12 {
        fill: #43913d;
      }

      .cls-13 {
        fill: #a67742;
      }

      .cls-14 {
        fill: #4b9146;
      }

      .cls-15 {
        fill: #3f1942;
      }

      .cls-16 {
        fill: #59a154;
      }

      .cls-17 {
        fill: #4f9949;
      }

      .cls-18 {
        fill: #459440;
      }

      .cls-19 {
        fill: #8fcf65;
      }

      .cls-20 {
        fill: #a84fa6;
      }

      .cls-21 {
        fill: #4ba145;
      }

      .cls-22 {
        fill: #ba8345;
      }
    </style>
  </defs>
  <g id="Layer_3" data-name="Layer 3">
    <path class="cls-2" d="m513.95,653.15c32.73-72.52,101.79-125.2,178.09-147.74,76.3-22.55,158.98-17.07,235.42,4.99,59.36,17.13,116.44,44.11,177.84,51.01,119.2,13.4,242.94-59.91,288.47-170.88-13.61,82.11-89.82,140.46-168.44,167.79-53.13,18.47-110.35,26.75-166.09,19.21-92.22-12.49-176.68-67.22-269.74-67.75-60.37-.34-119.13,22.72-169.42,56.13-50.29,33.41-93.04,76.84-106.13,87.25Z"/>
    <path class="cls-2" d="m1069.08,560.93c32.63,45.44,87.92,73.72,143.87,73.57,39.73-.1,78.68-13.58,118.39-12.25-38.75,13.59-78.18,27.32-119.21,29.25s-84.61-9.59-112.51-39.72c-9.37-10.12-16.71-22-26.33-31.88-9.62-9.88-22.48-17.91-36.24-17.16,2.23-1.18,4.45-2.35,32.03-1.81Z"/>
    <path class="cls-2" d="m829.55,491.75c46.59,3.04,81.19-48.08,127.69-52.26,25.66-2.31,49.98,10.13,74.34,18.51,47.91,16.48,100.98,17.56,149.52,3.04-21.1,22.95-55.28,29.29-86.3,26.11-31.01-3.18-60.58-14.36-91.02-21.1-30.44-6.74-63.77-8.65-91.42,5.76-13.89,7.24-25.66,18.27-40.02,24.52s-33.54,6.21-42.8-4.58Z"/>
    <path class="cls-2" d="m771.2,509.11c23.04,14.75,40.59,37.88,48.59,64.05,2.23,7.31,3.82,15.01,8.11,21.33,7.87,11.62,22.65,15.84,35.98,20.27,43.42,14.44,83.2,39.72,114.71,72.9-33.12-25.05-71.98-42.47-112.71-50.52-22.49-4.45-48.01-7.44-62.14-25.5-10.69-13.67-11.66-32.28-16.83-48.86-7.43-23.86-24.6-44.53-46.7-56.21,1.24-2.68,6.08-13.41,31,2.54Z"/>
    <path class="cls-2" d="m1194.68,639.85c12.22,16.66,34.01,23.44,54.62,24.84s41.38-1.53,61.93.52c-17.23,2.63-34.45,5.26-51.68,7.89-13.14,2.01-27.29,3.86-39.13-2.18-9.6-4.91-16.09-14.27-24.82-20.6-6.81-4.94-14.99-7.96-.93-10.46Z"/>
    <path class="cls-2" d="m1007.96,455.6c2.24-8.62,5.01-18.01,12.45-22.91,5.99-3.95,13.61-4.02,20.77-4.49,20.47-1.35,40.64-7.1,58.74-16.74-4.79,12.41-19.75,17.16-32.96,18.69s-27.71,1.84-37.82,10.49c-7.54,6.45-12.85,17.48-21.18,14.97Z"/>
    <path class="cls-2" d="m849.56,619.1c9.92-5.65,13.84-18,22.32-25.64,10.82-9.75,26.89-10.2,41.45-9.81,14.56.39,30.43.72,42.05-8.06-6,10.45-18.63,15.05-30.52,17s-24.34,2.15-35.26,7.24c-12.28,5.72-21.01,16.84-40.04,19.28Z"/>
    <path class="cls-2" d="m900.52,639.53l9.62,40.97c.79,3.38,1.61,6.81,3.29,9.85,7.88,14.25,29.85,13.46,40.48,25.79-9.51-9.6-19.01-19.19-28.52-28.79-1.9-1.92-3.82-3.86-5.27-6.14-7.72-12.1-.23-29.42-7.49-41.8-4.81.7-9.84-.3-12.1.12Z"/>
    <path class="cls-2" d="m1209.58,554.77c16.46-12.5,20.07-35.67,32.36-52.28,19.54-26.43,58.37-33.13,77.13-60.11-3.46,11.72-13.48,20.24-23.68,26.97s-21.31,12.61-29.14,21.99c-7.54,9.03-11.37,20.51-17.16,30.75-10.52,18.59-27.94,33.16-39.5,32.69Z"/>
  </g>
  <g id="Layer_5" data-name="Layer 5">
    <path class="cls-13" d="m519.72,646.44c43.13-59.2,106.43-102.05,175.14-127.41,23.94-8.84,52.44-15.17,73.61-.92,30.22,20.34,23.75,71.23,52.01,94.23,11.99,9.76,30.76,11.3,45.64,15.46,33.04,9.24,64.56,23.91,92.9,43.25-21.88-14.34-48.52-18.81-74.12-24.19s-57.69-9.53-76.46-27.75c-14.39-13.97-17.14-36.11-24.24-54.87-4.7-12.43-9.55-25.71-20.11-33.78-8.9-6.81-20.75-8.84-31.9-7.7s-21.78,5.15-32.12,9.45c-67.28,27.93-128.92,69.34-180.36,114.24Z"/>
    <path class="cls-13" d="m792.61,527.56c-7.63-4.66-20.68-13.91-28.3-18.57,48-9.73,98.37,8.72,144.63,24.82,46.26,16.1,90.97,31.4,139.72,36.06,15.98,1.53,20.59,5.17,29.48,15.36,6.2,7.1,18.99,24.69,25.43,30.59,28.11,25.7,56.85,29.41,94.6,34.39-41.4,11.82-89.24-3.67-115.85-37.52-7.28-9.26-13.22-19.86-22.55-27.05-13.11-10.09-30.58-11.79-46.98-13.98-30.88-4.12-61.35-11.33-90.8-21.46-23.9-8.22-47.14-18.37-71.38-25.56s-43.95-11.99-68.89-7.9c6.07,5.31,11.64,10.31,10.89,10.83Z"/>
    <path class="cls-13" d="m1199.52,652.84c-2.26-.59-4.98-1.57-7.48-1.28,1.18-.86,6.13-1.35,6.13-1.35,0,0,1.04.99,1.35,2.64Z"/>
  </g>
  <g id="Layer_7" data-name="Layer 7">
    <path class="cls-13" d="m869.99,497.28c9.81-6.31,18.07-13.76,27.87-20.07,12.17-7.83,24.59-15.78,38.58-19.49,23.25-6.16,47.77.07,71,6.29,22.83,6.11,45.66,12.21,68.51,18.33,26.81,4.53,54.6,3.11,80.81-4.13-21.93,10.22-47.17,11.19-71.15,7.94-23.98-3.25-47.2-10.47-70.74-16.07-24.36-5.79-49.78-9.85-74.38-5.13-26.15,5.02-47.88,22.26-70.5,32.33Z"/>
    <path class="cls-13" d="m1084.96,579.9c14.02,0,35.46-.53,50.28-3,53.31-8.89,101.63-18.82,147.7-47.09-7.04,8-16.58,13.45-26.51,17.31s-20.1,9.27-30.37,12.11c-23.65,6.54-46.87,12.44-70.75,18.1s-48.16,8.93-70.35,2.58Z"/>
    <path class="cls-13" d="m1197.51,650.39c8.03,10.46,20.83,17.71,33.61,20.98,12.77,3.27,26.43,2.58,39.05-1.24-13.22,4.71-27.59,7.32-41.32,4.44-13.73-2.88-26.05-11.84-31.34-24.19Z"/>
  </g>
  <g id="Layer_8" data-name="Layer 8">
    <path class="cls-22" d="m902.37,508.85l-10.47,2.78c.82,3.02,2.97,5.8,5.96,6.73s6.69-.46,7.82-3.38-1.23-6.69-3.31-6.13Z"/>
    <path class="cls-22" d="m1003.15,548.73c-2.74,1.03-5.48,2.07-8.22,3.1,2.19,1.94,4.5,3.94,7.34,4.65s6.35-.36,7.42-3.09-1.99-6.37-6.54-4.66Z"/>
    <path class="cls-22" d="m969.74,440.4l-8.92,5.94c2.34,1.33,4.79,2.69,7.47,2.81s5.65-1.42,6.2-4.05-2.89-5.95-4.75-4.71Z"/>
    <path class="cls-22" d="m864.56,503.73l-12.64,4c2.99,2.51,6.78,4.86,10.57,3.91s5.61-7.1,2.07-7.91Z"/>
    <path class="cls-22" d="m647.45,524.48c-3.06,3.01-6.13,6.02-9.19,9.04,2.68,2.83,7.71,2.91,10.48.18s2.74-7.78-1.29-9.21Z"/>
    <path class="cls-22" d="m804.65,560.81c-.13,1.94-.24,3.99.64,5.72s3.13,2.92,4.83,1.97c1.86-1.05,1.83-3.79,1.02-5.76-.66-1.59-1.78-3.12-3.41-3.65s-3.77.41-3.07,1.72Z"/>
    <path class="cls-22" d="m840.72,610.19l-8.19-1.82c.37,2.15,1.93,4.05,3.97,4.84s4.47.42,6.19-.92c.58-1.42-.47-3.24-1.96-2.1Z"/>
    <path class="cls-22" d="m887.12,588.74l-6.52,5.09c2.49,1.07,5.52.79,7.77-.73,1.3-.88,2.41-2.38,2.09-3.92s-2.7-2.38-3.34-.44Z"/>
    <path class="cls-22" d="m782.8,492.32l-7.1,3.07c1.39,1.14,3.09,1.9,4.86,2.19,1.79.29,3.9-.05,4.9-1.56s-.4-4.67-2.66-3.7Z"/>
    <path class="cls-22" d="m1134.43,568.67c-4,1.1-8,2.21-12,3.31,1.26,2.35,4.17,3.68,6.77,3.11s4.68-3,5.22-6.42Z"/>
    <path class="cls-22" d="m1248.41,506.96c-3.18,2.81-6.36,5.62-9.53,8.42,2.61,1.64,6.31,1.29,8.57-.81s2.87-5.77.96-7.62Z"/>
    <path class="cls-22" d="m1360.24,455.71l-11.09,9.15c2.18,2.04,5.85,2.24,8.24.44s3.22-5.37,2.85-9.6Z"/>
    <path class="cls-22" d="m1225.2,638.79l-11.51-1.6c-1.27,3.4,1.18,7.65,4.76,8.25s7.28-2.61,6.75-6.65Z"/>
    <path class="cls-22" d="m1280.37,629.36l-12.08,5.04c2.03,2.45,5.58,3.51,8.62,2.59s5.41-3.77,5.74-6.93c-1.55.08-3.09.17-2.28-.7Z"/>
    <path class="cls-22" d="m1133.07,621.45c-3.91-2.54-7.82-5.08-11.73-7.62-1.2,4.3,1.49,9.31,5.75,10.67,1.73.55,3.79.49,5.19-.68s1.66-3.65.79-2.37Z"/>
    <path class="cls-22" d="m1095.72,473.82l-11.05,1.02c.34,3.2,3.59,5.79,6.78,5.4s5.73-3.68,4.27-6.43Z"/>
    <path class="cls-22" d="m970.67,529.71l-11.3-1.87c-1.45,3.77,1.65,8.51,5.68,8.7s7.56-4.25,5.62-6.83Z"/>
    <path class="cls-22" d="m1064.15,556.25l-6.9,4.36c1.91.68,3.87,1.36,5.89,1.25s4.12-1.23,4.77-3.15-.81-4.33-3.76-2.47Z"/>
    <path class="cls-22" d="m603.65,551.32c-2.98,3.34-5.96,6.69-8.94,10.03,3.09.37,6.29.73,9.26-.18s5.68-3.46,5.76-6.57-3.57-6.11-6.09-3.28Z"/>
    <path class="cls-22" d="m718.44,502.92l-6.11,5.75c5.45.96,11.27-.39,15.75-3.65-3.66-2.13-8.18-3.47-9.64-2.1Z"/>
    <path class="cls-22" d="m1200.68,555.86l-1.48,5.97c3.58.1,6.27-4.57,1.48-5.97Z"/>
    <path class="cls-22" d="m1316.99,497.1l-8.41,10.57c2.99.01,6.15-.02,8.72-1.55s4.16-5.13,2.5-7.62-6.7-1.26-2.81-1.4Z"/>
    <path class="cls-22" d="m1012.09,452.85l-13.26-2.03c-1.06,4.22,3.04,8.85,7.36,8.3s7.13-6.08,5.9-6.27Z"/>
    <path class="cls-22" d="m910.1,461.49c-2.89,2.77-5.77,5.54-8.66,8.3,2.94,1.89,7.15,1.45,9.65-.99s3.01-6.65-.99-7.31Z"/>
    <path class="cls-22" d="m1180.46,637.41l-13.18,2.18c4.92,2.71,10.89,3.46,16.33,2.04-1.05-2.12-2.12-4.38-3.15-4.21Z"/>
    <path class="cls-22" d="m939.45,534.02l-7.02,2.79c1.79,2.33,4.23,4.37,7.15,4.76s6.22-1.35,6.79-4.23-2.33-5.14-6.91-3.32Z"/>
  </g>
  <g id="Layer_4" data-name="Layer 4">
    <path class="cls-5" d="m1027.31,439.37c-.93-10.86-1.71-22.48,3.64-31.98,3.45-6.12,9.08-10.65,14.57-15.03,21.21-16.89,42.42-33.78,63.63-50.67-17.87,24.81-35.73,49.63-53.6,74.44-6.77,9.41-16.79,20.01-28.24,23.24Z"/>
    <path class="cls-5" d="m1112.71,480.47c21.33,4.27,43.64,8.99,60.31,22.97,10.58,8.87,20.16,21.9,33.96,21.8-13.99-2.45-27.97-4.91-41.96-7.36-10.14-1.78-20.96-3.9-28.26-11.17-4.96-4.94-7.64-11.65-11.44-17.52s-9.68-11.34-12.61-8.72Z"/>
    <path class="cls-5" d="m1017.68,548.8c-1.85,19.67,3.8,39.95,15.56,55.82,11.76,15.88,29.51,27.2,48.86,31.16-17.16-10.3-25.77-30.01-34.4-48.07s-20.01-37.15-30.02-38.91Z"/>
    <path class="cls-18" d="m1267.21,484.29c-3.92-11.45-7.9-23.4-6.34-35.39,2.6-19.99,19.54-34.75,35.33-47.53-10.1,29.65-20.19,59.3-28.99,82.92Z"/>
    <path class="cls-17" d="m1327.47,491.59c11.89-13.45,29.7-21.05,47.63-21.89,29.33-1.38,59.87,13.9,87.1,2.92-48.45,16.22-100.48,21.66-134.73,18.97Z"/>
    <path class="cls-5" d="m1234.22,641.21c24.67-18.04,37.33-50.74,65-63.72,11.14-5.23,23.63-6.65,35.87-8-25.65,34.06-63.37,58.83-100.86,71.71Z"/>
    <path class="cls-5" d="m1149.11,631.66c-6.79,34.37,10.41,72.15,40.79,89.61-10.77-16.21-18.34-34.53-22.16-53.61-1.46-7.32-2.42-14.88-5.72-21.59-3.3-6.7-9.59-12.54-12.91-14.41Z"/>
    <path class="cls-5" d="m887.93,634.15c27.76-20.83,65.7-27.34,98.82-16.96-29.29,13.02-63.71,14.03-98.82,16.96Z"/>
    <path class="cls-14" d="m917.28,687.85c32.97-5.8,68.52,6,91.48,30.36-21.7-7.77-43.4-15.55-65.09-23.32-13.64-4.89-28.02-10.3-26.38-7.04Z"/>
    <path class="cls-9" d="m1054.83,470.01c-5.45,8.9-2.95,20.95,3.35,29.27,6.3,8.32,15.67,13.69,24.91,18.54s18.82,9.57,26.07,17.09c-11.29-19.88-22.87-40.11-39.81-55.46-5.7-5.17-11.96-9.72-14.52-9.44Z"/>
    <path class="cls-5" d="m831.2,613.99c-5.23,9.03-2.98,20.91,2.88,29.54,5.86,8.63,14.72,14.69,23.48,20.37,8.76,5.67,17.8,11.33,24.32,19.48-8.38-31.87-30.62-59.84-50.68-69.39Z"/>
    <path class="cls-1" d="m1180.46,637.76c2.63-12.99,11.26-24.15,21.63-32.4,10.38-8.25,22.5-13.96,34.5-19.6-10.36,25.96-33.72,46.34-56.13,52Z"/>
    <path class="cls-5" d="m1260.76,531.27c31.2-13.87,68.29-13.82,99.46.13-20.79,3.92-41.69,7.86-62.84,8.36-5.17.12-10.53,0-15.22-2.2s-8.53-6.98-21.4-6.29Z"/>
    <path class="cls-5" d="m1368.54,442.83l-10.09-69.33c-4.41,13.15-8.88,26.62-8.7,40.49s5.88,28.48,18.79,28.84Z"/>
    <path class="cls-14" d="m1264.07,666.68c20.3,11.17,40.61,22.33,60.91,33.5-14.21,3.61-29.92.82-42.02-7.46-12.1-8.28-20.38-21.92-18.89-26.03Z"/>
    <path class="cls-5" d="m915.36,514.06c4.98-10.7,17.96-15.44,29.76-15.35s23.24,3.87,34.95,5.33,24.81.1,33.16-8.24c-28.89,23.3-71.65,27.79-97.87,18.25Z"/>
    <path class="cls-5" d="m683.79,519.67c7.48-17.91,15.74-36.8,31.7-47.84,8.99-6.21,19.67-9.37,30.16-12.44-15.73,28.12-38.75,52.13-61.86,60.28Z"/>
    <path class="cls-21" d="m610.96,565.52c11.1-8.96,27.56-5.11,40.57.74,13.01,5.84,26.68,13.45,40.65,10.6-27.62,14.78-64.61,9.38-81.22-11.34Z"/>
    <path class="cls-14" d="m911.81,459.32c1.29-22.2,7.38-44.11,17.73-63.8,7.88,27.06-1.29,58.31-17.73,63.8Z"/>
    <path class="cls-5" d="m1143.36,565.37c17.57,5.76,33.9,15.29,47.55,27.77-21.29,6.4-46.47-7.9-47.55-27.77Z"/>
    <path class="cls-5" d="m1100.43,473.71c-3.57-12.38,7.86-24.17,19.62-29.44s25.36-7.59,34.65-16.53c-13.83,22.23-34.54,40.12-54.27,45.97Z"/>
    <path class="cls-5" d="m1378.28,424.06c21.39-18.07,47.37-30.65,74.8-36.24-18.21,23.57-48.93,36.86-74.8,36.24Z"/>
    <path class="cls-5" d="m895.9,586.08c2.58-21.47,18-40.9,38.34-48.27-7.27,21.53-23.06,40.06-38.34,48.27Z"/>
    <path class="cls-5" d="m970.97,448.69c4.41,9.38,15.38,13.27,25.1,16.87,9.71,3.6,20.45,9.25,22.46,19.41-12.45,2.19-25.82-1.53-35.35-9.83s-15.06-21.02-12.21-26.45Z"/>
    <path class="cls-12" d="m799.54,539.9c23.01-6.96,49.72.33,65.99,18.03-13.49.17-27.17.32-40.23-3.07-13.06-3.39-25.64-10.83-25.76-14.96Z"/>
    <path class="cls-5" d="m1103.57,569.96c7.75-23.35,33.52-39.22,57.86-35.64-14.81,21.41-39.54,35.64-57.86,35.64Z"/>
    <path class="cls-16" d="m818.55,497.86c-1.05-6.68,2.28-13.43,7.01-18.26s10.75-8.16,16.52-11.68,11.53-7.46,15.3-13.08c-4.45,9.72-8.99,19.57-15.89,27.74s-16.58,14.58-22.95,15.28Z"/>
  </g>
  <g id="Layer_9" data-name="Layer 9">
    <path class="cls-19" d="m1028.68,437.57c11.44-18.06,23.79-35.54,36.99-52.36,7.58-9.66,16.06-19.54,27.7-23.43-28.05,18.02-39.15,54.8-64.69,75.79Z"/>
    <path class="cls-19" d="m1123,485.22c22.09,9.48,43.45,20.69,63.8,33.5-25.85-6.1-45.66-27.52-63.8-33.5Z"/>
    <path class="cls-19" d="m1104.11,568.12c6.36-3.63,9.39-11.04,14.36-16.41,4.6-4.98,10.87-8.18,17.37-10.11s13.29-2.68,20.03-3.42c-13.87,1.45-27.18,7.82-37.01,17.73-5.26,5.3-10.15,11.93-14.75,12.21Z"/>
    <path class="cls-19" d="m917.07,511.97c12.04.94,23.24-5.86,35.12-8.05,12.51-2.31,25.32.57,37.71,3.43-12.03-2.39-24.54-2.4-36.57,0-13.57,2.7-27.44,8.4-36.25,4.62Z"/>
    <path class="cls-19" d="m912.38,455.22c12.81-11.05,19.02-29.23,15.66-45.81,4.94,16.42-1.9,35.66-15.66,45.81Z"/>
    <path class="cls-19" d="m972.13,452.72c3.66,7.78,10.53,13.69,18.11,17.74s15.92,6.45,24.19,8.81c-16.66,1.13-33.52-8.93-42.29-26.55Z"/>
    <path class="cls-19" d="m1103.04,469.07c3.94-8.71,11.2-15.86,19.95-19.69,6.75-2.95,14.62-4.18,19.74-9.47-4.17,4.18-9.66,6.76-15.12,9.01s-11.08,4.32-15.9,7.74c-4.82,3.42-8.83,8.49-8.67,12.4Z"/>
    <path class="cls-19" d="m1056.29,470.94c-.99,7.79,2.76,15.57,8.08,21.35,5.31,5.79,12.1,9.97,18.63,14.33,6.54,4.36,13.05,9.11,17.44,15.62-10.72-6.08-21.57-12.26-30.37-20.9s-15.44-20.15-13.78-30.41Z"/>
    <path class="cls-19" d="m821.55,495.47c4.51-11.52,13.64-21.15,24.9-26.27-9.43,8.38-17.83,17.93-24.9,26.27Z"/>
    <path class="cls-19" d="m688.21,515.9c9.41-7.05,14.67-18.15,21.11-27.98s15.69-19.4,27.43-20c-11.1,2.97-18.86,12.78-25.19,22.38s-12.51,20.01-23.36,25.6Z"/>
    <path class="cls-19" d="m806.46,541.28c11.57.14,23.11,2.72,33.63,7.52,6.25,2.85,12.7,6.57,19.5,5.59-9.88.73-19.29-3.77-28.47-7.5s-19.56-6.81-24.66-5.62Z"/>
    <path class="cls-19" d="m901.3,579.51c4.8-2.84,6.2-8.96,8.21-14.17,3.72-9.67,11.03-17.91,20.18-22.75-7.29,4.66-11.09,13.03-15.11,20.69s-9.38,15.61-13.27,16.24Z"/>
    <path class="cls-19" d="m895.71,630.18c26.89-12.38,57.33-16.9,86.65-12.87-31.43-.92-63.03,4.56-86.65,12.87Z"/>
    <path class="cls-19" d="m1019.07,551.24c2.42,29.84,19.26,58.18,44.33,74.56-13.8-5.96-20.99-20.93-27.03-34.7-5.98-13.66-11.97-27.32-17.3-39.86Z"/>
    <path class="cls-19" d="m1270.09,478.39c-4.45-24.26,4.35-50.54,22.51-67.22-10.08,6.38-17.87,16.28-21.7,27.58s-3.66,23.9-.81,39.64Z"/>
    <path class="cls-19" d="m1365.91,437.99c-12.86-10.56-16.91-30.47-9.19-45.21-3.52,7.56-3.54,16.4-1.52,24.5,2.03,8.09,5.97,15.57,10.7,20.72Z"/>
    <path class="cls-19" d="m1384.18,420.4c20.77-9.86,42.09-18.56,63.83-26.04-21.77,12.95-45.93,21.86-63.83,26.04Z"/>
    <path class="cls-19" d="m1335.14,488.44c8.48-4.46,17.03-8.95,26.25-11.54,9.22-2.59,19.28-3.18,28.26.16,12.45,4.63,26.04,6.16,39.21,4.41-32.61-1.39-65.96-2.69-93.71,6.96Z"/>
    <path class="cls-19" d="m1272.43,528.19c23.81-1.21,47.75-.1,71.35,3.28-24.94,1.41-50.03.25-71.35-3.28Z"/>
    <path class="cls-19" d="m1245.55,633.35c28.21-18.52,55.24-38.84,80.88-60.78-21.63,26.41-49.31,47.85-80.88,60.78Z"/>
    <path class="cls-19" d="m1185.31,630.8c17.34-9.13,32.39-22.56,43.44-38.75-6.25,9.15-12.55,18.36-20.3,26.28s-17.12,14.58-23.13,12.47Z"/>
    <path class="cls-19" d="m1152.42,639.03c-2.7,24.35,6.45,49.74,24.06,66.77-15.08-20.87-23.62-46.39-24.06-66.77Z"/>
    <path class="cls-19" d="m1269.73,669.89c11.06,15.23,28.32,25.81,46.9,28.75-19.1-1.89-37.1-12.83-46.9-28.75Z"/>
    <path class="cls-19" d="m832.39,615.15c6.01,22.03,29.27,34.8,39.81,55.06-11.66-11.69-23.44-23.52-31.98-37.66-3.91-6.48-7.11-13.39-7.83-17.4Z"/>
    <path class="cls-19" d="m615.38,564.04c9.99,5.39,20.07,10.82,30.95,14.04s22.78,4.09,33.5.33c-11.81,3.99-24.76.35-36.39-4.17-11.62-4.51-23.38-10-28.06-10.2Z"/>
  </g>
  <g id="Layer_10" data-name="Layer 10">
    <path class="cls-10" d="m772.26,427.07c-.38,1.79.42,3.68,1.68,5s2.95,2.16,4.65,2.85c8.53,3.46,17.96,3.75,27.14,4.47,9.18.72,18.71,2.06,26.34,7.22-2.11-2.96-5.28-5.05-8.68-6.35s-7.04-1.85-10.66-2.19c-7.21-.68-11.9-1.7-20.13-2.82-7.23-.99-15.84-2.88-20.35-8.17Z"/>
    <path class="cls-4" d="m771.63,418.77c-.31,4.89,3.34,9.33,7.73,11.49s9.43,2.5,14.32,2.81c13.9.88,27.79,1.75,41.69,2.63-3.31,1.1-6.78,1.7-10.26,1.79,2.97.75,5.75,2.24,8.02,4.29-17.09-2.74-27.3-5.15-44.27-6.54-2.93-.24-13.01-2.8-15.06-4.9-3.15-3.22-2.47-8.44-1.57-12.85.28.7.56,1.41-.6,1.28Z"/>
    <path class="cls-7" d="m769.53,365.83c-31.03-9.57-66.78-1.99-91.26,19.35-6.51,5.67-12.61,13.16-12.34,21.79.42,13.26,14.97,21.14,27.86,24.28,36.33,8.86,75.07,2.13,109.7-11.97,34.64-14.1,65.89-35.21,96.86-56.17-47.85.77-95.7,1.54-130.83,2.72Z"/>
    <path class="cls-7" d="m700.29,391.22c-7.91-14.91-17.58-31.28-33.92-35.53-12.99-3.38-26.62,2.06-38.22,8.82-4.44,2.59-9.13,5.9-10.24,10.92-1.81,8.21,6.77,14.78,14.53,18.03,26.59,11.16,57.68,11.12,67.85-2.24Z"/>
    <path class="cls-7" d="m711.07,378.1c14.08-17.92,3.88-46.27,16.27-65.41,5.48-8.47,14.59-13.77,23.36-18.76,37.01-21.06,74.01-42.13,111.02-63.19-5.48,12.12-13.1,23.28-22.4,32.79,7.74,1.62,16.2-.69,22.03-6.02-4.92,6.49-9.84,12.98-14.75,19.47l14.53-1.52c-21.07,20.09-42.15,40.18-63.22,60.28-16.7,15.92-34.01,32.8-86.83,42.36Z"/>
    <path class="cls-4" d="m637.33,373c-16.34,4.37-26.57,11.09-49.03,13.11,9.59,4.76,19.93,9.65,30.54,8.18s25.61-9.63,18.48-21.29Z"/>
    <path class="cls-4" d="m745.94,424.97c1.2,8.65,3.08,18.42,10.47,23.06,4.11,2.58,9.16,3.02,13.98,3.6,15.6,1.86,30.93,5.9,45.42,11.97.18-3.73-2.58-7.39-6.21-8.24,3.15,1.13,6.31,2.26,9.46,3.38-1.03-4.55-6.78-5.85-11.42-6.25-9.06-.78-18.12-1.57-27.18-2.35-7.05-.61-14.34-1.29-20.55-4.71-6.2-3.42-11.04-10.37-13.97-20.45Z"/>
    <path class="cls-8" d="m836.63,262.92c-30.87,38.8-28.14,47.43-74.08,82.65-3.9,2.99-20.12,12.5-17.56,16.7,1.59,2.59,2.92,5.3,5.95,4.96s5.7-1.96,8.43-3.31c32.36-16.04,78.24-57.43,109.04-92.25-4.88,4.61-12.34.94-19.02,1.62,6.7-6.27,9.85-8.19,13.82-16.47-11.97,7.86-9.59,3.75-17.66,7.2,5.19-7.47,9.16-21.98,14.35-29.45"/>
    <path class="cls-8" d="m895.59,364.95c12.59-3.53,23.69-12.11,30.27-23.41-10.23,6.04-21.64,10.07-33.4,11.78,10.23-3.13,18.89-11.04,22.93-20.94-11.17,7.69-23.89,13.13-37.17,15.9,11.3-4.11,21.07-12.3,27.07-22.72-22.7,16.11-49.74,25.24-77.14,30.14-27.4,4.89-55.34,5.74-83.16,6.57-.33,5.36,12.87,8.12,17.56,10.73s18.5,2.44,23.84,2.97c47.1,4.71,76.48-1.84,109.2-11.02Z"/>
    <path class="cls-3" d="m638.74,358.44c-3.86,2.15-5.13,7.89-2.53,11.47,2.6,3.58,8.45,4.15,11.69,1.15s3.12-8.88-.26-11.74c-2.9-2.46-7.62-1.59-8.9-.87Z"/>
    <path class="cls-3" d="m623.49,365.35c-2.68-2.72-7.43-1.07-9.19,2.32s.84,8.36,4.66,8.3c2.52-.03,5.45-2.21,6.28-4.58s-.57-4.84-1.75-6.04Z"/>
    <path class="cls-15" d="m641.71,363.3c-1.13.63-2.06,1.53-2.39,2.78s-.04,2.6.56,3.74c.58,1.1,1.48,2.08,2.63,2.55s2.58.35,3.52-.47c1.16-1.01,1.33-2.76,1.04-4.27-.25-1.35-.84-2.7-1.89-3.58s-2.7-1.19-3.48-.76Z"/>
    <path class="cls-15" d="m620.73,366.97c-1.09.28-1.99.84-2.55,1.84s-.62,2.22-.37,3.34c.24,1.08.78,2.11,1.65,2.77.87.66,2.1.87,3.08.38,1.21-.61,1.75-2.07,1.85-3.43.09-1.22-.1-2.5-.79-3.49-.69-.99-2.1-1.6-2.87-1.4Z"/>
    <path class="cls-10" d="m638.75,375.92c-14.23,8.97-32.93,12.75-50.44,10.18,5.07,2.31,10.96,3.15,16.72,2.97,5.76-.18,11.42-1.34,16.91-2.84,3.62-.99,7.22-2.14,10.34-3.95s5.78-4.37,6.47-6.35Z"/>
    <path class="cls-10" d="m746.38,427.54c-.46,5.8.6,11.9,3.97,16.64,4.31,6.06,11.76,9.13,19.07,10.52,7.31,1.4,14.84,1.43,22.11,3s14.62,5.02,18.49,11.37c.73-4.1-1.89-8.21-5.36-10.49-3.48-2.29-7.67-3.14-11.76-3.94-8.67-1.7-17.35-3.41-26.12-4.5-3.65-.45-7.48-.86-10.51-2.94-2-1.37-3.48-3.37-4.74-5.44-2.73-4.48-4.59-9.48-5.15-14.22Z"/>
    <path class="cls-20" d="m683.3,392.23c-3.04,3.84-9.32,7.47-17.71,9.58-6.36,1.59-13.11.68-19.32-1.45-6.21-2.13-11.98-5.42-17.71-8.7,10.38,2.39,20.16,6.21,30.76,5.2,10.59-1,19.13-5.19,26.56-13.08,0,2.97-1.17,6.69-2.57,8.46Z"/>
  </g>
  <g id="Layer_11" data-name="Layer 11">
    <path class="cls-6" d="m669.35,400.28c-.2,9.05,4.51,18.06,12.04,23.07-2.72-4.59-4.35-9.81-4.74-15.12,5.41,8.53,13.13,15.57,22.12,20.17-2.93-4.78-5.86-9.57-8.79-14.35,6.05,9.75,16.63,16.56,28.01,18.04-3.1-3.83-6.2-7.66-9.29-11.49,8.16,7.68,20.56,10.55,31.27,7.24-3.61-3.11-7.21-6.23-10.82-9.34,9.13,6.87,20.72,10.41,32.13,9.8-5.37-1.99-10.29-5.18-14.31-9.26,6.82.65,13.64,1.29,20.45,1.94-7.5-4.3-15-8.59-22.5-12.89,4.29,2.12,9.61,2,13.81-.3-8.66-4.96-19.49-5.96-28.91-2.67,4.31-2.2,8.62-4.41,12.93-6.61-10.79-1.67-21.99-.62-32.28,3.03,3.85-.07,7.61-2.08,9.83-5.23-10.08-.55-20.26.67-29.93,3.59,3.75-1,7.02-3.66,8.75-7.13-10.73,2.77-21.46,5.55-29.76,7.51Z"/>
    <path class="cls-11" d="m1036.14,436.99l-17.71,7.23"/>
    <path class="cls-6" d="m727.84,338.85c-1.09-10.74,1.35-21.81,6.86-31.11.83-1.4,2.3-2.95,3.79-2.31,1.43.62,1.38,2.65,1.06,4.18-2.28,10.69-6.51,20.96-11.71,29.24Z"/>
    <path class="cls-6" d="m741.07,321.31c.31-10.12,5.21-20.01,13.08-26.38,1-.81,2.11-1.59,3.39-1.76s2.75.49,3.09,1.74c.35,1.29-.57,2.54-1.43,3.56-6.69,7.89-13.38,15.77-18.13,22.84Z"/>
    <path class="cls-6" d="m763.72,301.45c2.14-8.26,7.78-15.56,15.24-19.7,1.15-.64,2.56-1.21,3.75-.65,1.24.59,1.67,2.23,1.31,3.56s-1.31,2.4-2.24,3.41c-5.89,6.36-12.33,12.2-19.23,17.43.12-2.89,1.45-5.71,1.17-4.04Z"/>
    <path class="cls-6" d="m791.31,278.48c3.4-7.17,10.15-12.67,17.86-14.55-4.74,10.45-12.13,19.69-21.28,26.61.4-5.95,2.74-11.75,3.43-12.06Z"/>
    <path class="cls-6" d="m814.24,265.22c2.97-6.25,8.62-11.16,15.21-13.25-5.84,9.87-13.2,18.84-21.75,26.5,1.79-6.64,4.82-12.94,6.54-13.24Z"/>
    <path class="cls-6" d="m833.22,255.03c4.93-7.76,12.04-14.11,20.29-18.16,1.23,1.77-.45,4.07-2.02,5.54-7.05,6.63-14.11,13.26-21.16,19.89.92-3.77,2.8-7.3,2.89-7.28Z"/>
    <path class="cls-20" d="m900.35,363.11c-55.43,28.96-78.85,50.72-132.94,66.53,50.81-5.32,91.71-28.42,132.94-66.53Z"/>
  </g>
</svg>